<svg width="229" height="24" viewBox="0 0 229 24" fill="none" xmlns="http://www.w3.org/2000/svg">
<path d="M203.209 5.92478C206.335 5.92207 209.46 5.91936 212.681 5.91656C213.667 5.91536 214.654 5.91416 215.671 5.91293C216.876 5.91234 216.876 5.91234 217.441 5.91223C217.835 5.9121 218.229 5.91162 218.623 5.91089C219.077 5.91005 219.532 5.90968 219.987 5.90986C220.219 5.90994 220.452 5.90982 220.684 5.9091C220.895 5.90845 221.106 5.90843 221.317 5.90888C221.392 5.90893 221.468 5.90877 221.544 5.90835C222.231 5.90479 222.933 5.96398 223.586 6.16871C223.621 6.17963 223.657 6.19055 223.693 6.2018C224.37 6.42005 225.004 6.73844 225.553 7.15263C225.602 7.18954 225.652 7.22646 225.703 7.26449C226.668 8.00878 227.301 9.04767 227.468 10.1784C227.482 10.344 227.485 10.5085 227.484 10.6745C227.483 10.7186 227.483 10.7627 227.483 10.8082C227.476 11.1556 227.437 11.4675 227.321 11.8009C227.311 11.8283 227.302 11.8556 227.292 11.8838C227.054 12.5496 226.666 13.1238 226.142 13.6427C226.106 13.679 226.069 13.7154 226.031 13.7528C225.696 14.0682 225.312 14.3148 224.915 14.5636C225.07 14.6748 225.232 14.7541 225.409 14.8349C225.924 15.0804 226.357 15.3905 226.781 15.7476C226.818 15.7776 226.854 15.8077 226.892 15.8387C227.351 16.2267 227.683 16.6727 227.956 17.1782C227.974 17.2112 227.992 17.2441 228.011 17.278C228.26 17.7601 228.329 18.2305 228.325 18.7561C228.325 18.8523 228.326 18.9483 228.328 19.0444C228.334 20.1908 227.752 21.161 226.879 21.9745C226.829 22.0237 226.829 22.0237 226.777 22.0739C225.825 22.9728 224.353 23.5599 222.97 23.6025C222.91 23.6025 222.849 23.6024 222.787 23.6024C222.753 23.6025 222.719 23.6025 222.684 23.6026C222.57 23.6027 222.456 23.6025 222.343 23.6023C222.26 23.6023 222.177 23.6024 222.095 23.6024C221.868 23.6025 221.642 23.6023 221.416 23.6021C221.171 23.6019 220.927 23.602 220.683 23.602C220.259 23.6021 219.836 23.6019 219.413 23.6017C218.801 23.6013 218.189 23.6012 217.577 23.6011C216.584 23.6011 215.592 23.6008 214.599 23.6003C213.634 23.5999 212.67 23.5996 211.706 23.5994C211.646 23.5994 211.586 23.5994 211.524 23.5994C211.054 23.5993 210.584 23.5992 210.115 23.5991C207.813 23.5987 205.511 23.5979 203.209 23.597C203.209 17.7652 203.209 11.9333 203.209 5.92478ZM207.138 9.25751C207.138 10.5165 207.138 11.7755 207.138 13.0726C208.966 13.0765 210.794 13.0797 212.623 13.0816C212.839 13.0818 213.055 13.082 213.271 13.0823C213.314 13.0823 213.357 13.0823 213.401 13.0824C214.097 13.0832 214.793 13.0845 215.488 13.0861C216.203 13.0878 216.917 13.0888 217.631 13.0891C218.071 13.0894 218.512 13.0901 218.952 13.0915C219.255 13.0925 219.557 13.0928 219.859 13.0925C220.034 13.0924 220.208 13.0926 220.382 13.0935C220.572 13.0945 220.761 13.0942 220.95 13.0937C221.005 13.0942 221.059 13.0947 221.115 13.0953C221.85 13.0903 222.454 12.8483 222.99 12.4066C223.418 12.0078 223.556 11.5737 223.55 11.0381C223.515 10.5178 223.222 10.0516 222.803 9.69603C222.272 9.31871 221.748 9.25072 221.086 9.25224C221.027 9.2522 220.967 9.25217 220.906 9.25213C220.741 9.25207 220.576 9.25221 220.41 9.25243C220.232 9.25261 220.054 9.25255 219.876 9.25252C219.567 9.25249 219.259 9.25263 218.95 9.25288C218.504 9.25324 218.058 9.25335 217.612 9.2534C216.888 9.2535 216.165 9.25379 215.441 9.25421C214.738 9.25461 214.035 9.25492 213.332 9.25511C213.289 9.25512 213.245 9.25513 213.201 9.25514C212.983 9.2552 212.766 9.25525 212.548 9.25531C210.745 9.25576 208.941 9.25657 207.138 9.25751ZM207.138 16.4492C207.138 17.7082 207.138 18.9672 207.138 20.2643C209.091 20.2682 211.045 20.2714 212.998 20.2733C213.229 20.2735 213.46 20.2737 213.691 20.2739C213.76 20.274 213.76 20.274 213.83 20.2741C214.573 20.2748 215.316 20.2762 216.06 20.2778C216.823 20.2795 217.586 20.2805 218.349 20.2808C218.82 20.281 219.29 20.2818 219.761 20.2832C220.084 20.2842 220.407 20.2844 220.73 20.2842C220.916 20.2841 221.102 20.2843 221.288 20.2852C221.491 20.2862 221.693 20.2859 221.895 20.2854C221.983 20.2862 221.983 20.2862 222.072 20.2869C222.716 20.2829 223.255 20.1262 223.736 19.7381C224.195 19.3011 224.401 18.827 224.39 18.2281C224.336 17.6801 223.988 17.2422 223.532 16.8911C222.978 16.5299 222.403 16.4357 221.736 16.4387C221.673 16.4386 221.611 16.4385 221.546 16.4384C221.374 16.4382 221.201 16.4386 221.028 16.439C220.842 16.4394 220.655 16.4393 220.469 16.4392C220.146 16.4392 219.823 16.4394 219.5 16.4399C219.033 16.4406 218.567 16.4409 218.1 16.441C217.342 16.4412 216.585 16.4418 215.827 16.4426C215.092 16.4434 214.356 16.444 213.62 16.4444C213.552 16.4444 213.552 16.4444 213.483 16.4445C213.255 16.4446 213.027 16.4447 212.8 16.4448C210.912 16.4457 209.025 16.4473 207.138 16.4492Z" fill="#00796E"/>
<path d="M118.204 5.35547C125.967 5.35547 133.729 5.35547 141.727 5.35547C141.727 8.05297 141.727 8.05297 141.373 8.39991C140.985 8.70143 140.656 8.82531 140.137 8.82515C140.041 8.82528 140.041 8.82528 139.944 8.82542C139.874 8.82529 139.803 8.82516 139.733 8.82503C139.658 8.82505 139.583 8.82509 139.508 8.82514C139.302 8.82524 139.096 8.82506 138.89 8.82485C138.667 8.82466 138.445 8.82472 138.223 8.82475C137.838 8.82478 137.453 8.82464 137.068 8.82439C136.512 8.82404 135.955 8.82392 135.398 8.82387C134.495 8.82377 133.592 8.82348 132.689 8.82306C131.812 8.82266 130.935 8.82235 130.058 8.82216C130.004 8.82215 129.95 8.82214 129.894 8.82213C129.623 8.82207 129.351 8.82202 129.08 8.82196C126.83 8.82151 124.58 8.8207 122.329 8.81976C122.329 10.1511 122.329 11.4824 122.329 12.8541C128.374 12.8541 134.419 12.8541 140.646 12.8541C140.646 13.9394 140.646 15.0248 140.646 16.143C134.602 16.143 128.557 16.143 122.329 16.143C122.329 17.4888 122.329 18.8346 122.329 20.2212C122.882 20.2205 123.435 20.2198 124.004 20.2191C125.773 20.217 127.541 20.2155 129.31 20.2145C129.584 20.2143 129.859 20.2142 130.134 20.214C130.216 20.2139 130.216 20.2139 130.299 20.2139C131.185 20.2133 132.07 20.2123 132.956 20.2111C133.864 20.2098 134.773 20.2091 135.682 20.2088C136.242 20.2086 136.803 20.2081 137.364 20.207C137.748 20.2063 138.132 20.2061 138.517 20.2063C138.739 20.2064 138.96 20.2062 139.182 20.2055C139.385 20.2049 139.589 20.2049 139.792 20.2053C139.865 20.2054 139.939 20.2052 140.012 20.2048C140.544 20.202 140.976 20.2401 141.383 20.572C142.246 21.4591 141.727 22.2067 141.727 23.6855C133.964 23.6855 126.202 23.6855 118.204 23.6855C118.204 17.6366 118.204 11.5877 118.204 5.35547Z" fill="#00796E"/>
<path d="M33.1967 5.35507C35.6394 5.35205 38.0822 5.34974 40.5249 5.34835C40.8136 5.34818 41.1023 5.34801 41.391 5.34784C41.4485 5.34781 41.506 5.34777 41.5652 5.34774C42.4945 5.34716 43.4239 5.34613 44.3532 5.34492C45.3075 5.34368 46.2618 5.34296 47.2161 5.34269C47.8045 5.34251 48.3929 5.34194 48.9813 5.34087C49.3853 5.34017 49.7893 5.33996 50.1933 5.34013C50.4261 5.34022 50.6588 5.34009 50.8916 5.33938C52.6833 5.33419 52.6833 5.33419 53.4291 5.48662C53.4814 5.49701 53.5337 5.50741 53.5875 5.51811C53.7091 5.54351 53.8282 5.57261 53.9479 5.60447C53.9904 5.61562 54.0329 5.62677 54.0767 5.63825C55.2903 5.96893 56.3425 6.55257 57.2596 7.32839C57.33 7.38707 57.33 7.38707 57.4019 7.44693C58.3999 8.29487 59.0767 9.4184 59.3712 10.6173C59.3799 10.6507 59.3886 10.6842 59.3975 10.7186C59.4838 11.0856 59.4889 11.4501 59.4878 11.8232C59.4878 11.8562 59.4878 11.8891 59.4878 11.9231C59.4862 12.4414 59.4426 12.9261 59.273 13.4238C59.2641 13.452 59.2551 13.4802 59.2459 13.5092C58.6976 15.2319 57.2897 16.6199 55.563 17.4866C54.8039 17.8532 53.9794 18.0966 53.1345 18.2475C53.3144 18.3792 53.4945 18.5107 53.6747 18.6421C53.7049 18.6642 53.7352 18.6863 53.7663 18.709C54.1129 18.9618 54.4603 19.2133 54.8134 19.4589C55.0631 19.6327 55.3059 19.8125 55.5464 19.9964C55.7606 20.1593 55.9806 20.3147 56.2027 20.4689C56.4767 20.6598 56.7444 20.857 57.0121 21.0547C57.2299 21.2155 57.449 21.3746 57.6703 21.5316C57.8412 21.6537 58.0107 21.7774 58.1803 21.9009C58.431 22.0833 58.6833 22.2634 58.9384 22.4408C59.1889 22.6151 59.4324 22.7953 59.6731 22.9802C59.8933 23.1482 60.1217 23.3054 60.3553 23.4583C60.4218 23.5027 60.4861 23.5498 60.5498 23.5974C60.5498 23.6263 60.5498 23.6553 60.5498 23.6851C59.8373 23.6954 59.1249 23.7031 58.4123 23.7078C58.0814 23.7101 57.7505 23.7131 57.4196 23.7182C57.0999 23.723 56.7803 23.7256 56.4606 23.7267C56.339 23.7275 56.2174 23.7291 56.0958 23.7315C54.9442 23.7531 54.9442 23.7531 54.4775 23.3557C54.4394 23.3197 54.4014 23.2837 54.3622 23.2466C54.2931 23.1954 54.2233 23.1449 54.1521 23.096C54.0922 23.0522 54.0323 23.0083 53.9724 22.9643C53.7278 22.7857 53.4818 22.6089 53.2327 22.4353C52.9508 22.2388 52.673 22.038 52.396 21.8361C52.1855 21.683 51.9734 21.5321 51.7595 21.3829C51.4776 21.1863 51.1998 20.9856 50.9227 20.7837C50.7123 20.6306 50.5002 20.4796 50.2862 20.3304C50.0044 20.1339 49.7266 19.9332 49.4495 19.7312C49.2119 19.5584 48.9718 19.3886 48.7302 19.2203C48.4641 19.0343 48.2021 18.8439 47.9409 18.6526C47.9094 18.6296 47.878 18.6067 47.8456 18.583C47.8178 18.5627 47.7901 18.5423 47.7615 18.5214C47.5478 18.3716 47.3925 18.3663 47.1307 18.3668C47.0679 18.3664 47.0679 18.3664 47.0039 18.3661C46.8632 18.3653 46.7225 18.3652 46.5818 18.3651C46.4812 18.3646 46.3805 18.3642 46.2799 18.3637C46.0061 18.3625 45.7324 18.3619 45.4587 18.3613C45.1728 18.3606 44.8869 18.3594 44.601 18.3583C44.0594 18.3562 43.5178 18.3546 42.9763 18.3532C42.3598 18.3515 41.7433 18.3493 41.1268 18.3471C39.8585 18.3426 38.5901 18.3387 37.3217 18.3352C37.3243 18.3797 37.3269 18.4242 37.3295 18.47C37.3539 18.8924 37.3777 19.3149 37.4011 19.7374C37.4132 19.9545 37.4254 20.1716 37.438 20.3887C37.4501 20.5988 37.4619 20.8089 37.4733 21.0191C37.4777 21.0986 37.4823 21.1782 37.487 21.2577C37.5102 21.6502 37.5253 22.0393 37.5014 22.432C37.4996 22.4622 37.4979 22.4925 37.496 22.5237C37.4728 22.8308 37.373 23.0403 37.1683 23.2822C36.63 23.6479 35.9063 23.6533 35.2569 23.6609C35.1991 23.6619 35.1412 23.6628 35.0816 23.6638C34.9608 23.6657 34.84 23.6675 34.7192 23.669C34.5333 23.6714 34.3474 23.6745 34.1616 23.6776C34.0438 23.6794 33.926 23.6812 33.8082 23.6829C33.7246 23.6842 33.7246 23.6842 33.6393 23.6856C33.5883 23.6862 33.5372 23.6868 33.4847 23.6874C33.4171 23.6884 33.4171 23.6884 33.3481 23.6893C33.2458 23.6851 33.2458 23.6851 33.1967 23.6412C33.1919 23.5443 33.1906 23.4473 33.1906 23.3503C33.1906 23.3193 33.1905 23.2884 33.1905 23.2566C33.1903 23.1516 33.1906 23.0467 33.1908 22.9418C33.1908 22.8663 33.1907 22.7908 33.1907 22.7154C33.1905 22.507 33.1907 22.2986 33.191 22.0902C33.1912 21.8658 33.1911 21.6415 33.1911 21.4172C33.1911 21.0281 33.1912 20.6391 33.1915 20.2501C33.1919 19.6876 33.192 19.1251 33.1921 18.5627C33.1922 17.6502 33.1925 16.7377 33.193 15.8252C33.1934 14.9386 33.1938 14.052 33.194 13.1654C33.194 13.1107 33.194 13.0561 33.194 12.9999C33.1941 12.7259 33.1942 12.452 33.1942 12.178C33.1947 9.90371 33.1956 7.62939 33.1967 5.35507ZM37.3217 8.64395C37.3217 10.7567 37.3217 12.8695 37.3217 15.0463C39.9297 15.0514 39.9297 15.0514 42.5377 15.0549C42.8898 15.0552 43.2419 15.0556 43.5939 15.0559C43.638 15.056 43.6822 15.056 43.7276 15.0561C44.4388 15.0568 45.1499 15.0582 45.8611 15.0598C46.5916 15.0615 47.3221 15.0624 48.0526 15.0628C48.5029 15.063 48.9532 15.0638 49.4035 15.0652C49.7128 15.0662 50.0222 15.0664 50.3315 15.0662C50.5096 15.0661 50.6877 15.0663 50.8658 15.0672C52.124 15.074 52.124 15.074 53.3002 14.7064C53.3327 14.6914 53.3651 14.6763 53.3985 14.6608C53.6818 14.5249 53.9287 14.3635 54.1658 14.1693C54.2029 14.1402 54.24 14.111 54.2782 14.081C54.9515 13.5221 55.3367 12.7688 55.4025 11.9525C55.4271 11.1414 55.0684 10.368 54.4819 9.75668C53.7964 9.11391 52.8506 8.6657 51.8487 8.62822C51.5035 8.62083 51.1583 8.62176 50.813 8.62359C50.6316 8.62435 50.4501 8.62409 50.2687 8.62396C49.9551 8.62386 49.6415 8.62441 49.3279 8.6254C48.8745 8.62683 48.4211 8.62728 47.9678 8.6275C47.232 8.62789 46.4962 8.62905 45.7605 8.63071C45.0462 8.63233 44.3319 8.63356 43.6176 8.63431C43.573 8.63436 43.5285 8.63441 43.4826 8.63445C43.1341 8.63482 42.7856 8.63516 42.4371 8.6355C40.732 8.63715 39.0269 8.64068 37.3217 8.64395Z" fill="#00796E"/>
<path d="M62.1703 5.35547C69.0253 5.35547 75.8803 5.35547 82.943 5.35547C82.943 8.07428 82.943 8.07428 82.5992 8.46894C82.1264 8.79149 81.767 8.83282 81.183 8.8303C81.1194 8.83038 81.0557 8.83045 80.9901 8.83053C80.814 8.83073 80.6378 8.83038 80.4616 8.82994C80.2715 8.82956 80.0813 8.82968 79.8911 8.82975C79.5618 8.8298 79.2326 8.82952 78.9033 8.82903C78.4272 8.82832 77.951 8.82809 77.4749 8.82798C76.7025 8.82779 75.93 8.8272 75.1575 8.82637C74.4072 8.82557 73.6569 8.82495 72.9066 8.82457C72.8372 8.82454 72.8372 8.82454 72.7664 8.8245C72.5343 8.82439 72.3022 8.82428 72.0701 8.82417C70.1452 8.82326 68.2203 8.82164 66.2954 8.81976C66.2954 10.1511 66.2954 11.4824 66.2954 12.8541C71.4488 12.8541 76.6022 12.8541 81.9117 12.8541C81.9117 13.9394 81.9117 15.0248 81.9117 16.143C76.7583 16.143 71.6049 16.143 66.2954 16.143C66.2954 17.4888 66.2954 18.8346 66.2954 20.2212C67.0026 20.2191 67.0026 20.2191 67.7241 20.217C69.2335 20.2128 70.7429 20.2099 72.2523 20.2078C72.4869 20.2074 72.7215 20.2071 72.956 20.2068C73.0027 20.2067 73.0494 20.2066 73.0975 20.2065C73.8531 20.2054 74.6086 20.2033 75.3642 20.2009C76.1397 20.1984 76.9153 20.197 77.6909 20.1965C78.1692 20.1961 78.6476 20.195 79.1259 20.1928C79.4542 20.1914 79.7825 20.191 80.1107 20.1913C80.3 20.1915 80.4892 20.1913 80.6784 20.1898C80.8841 20.1883 81.0896 20.1889 81.2952 20.1896C81.3545 20.1888 81.4137 20.188 81.4747 20.1872C81.9305 20.1915 82.3266 20.296 82.6646 20.5808C82.8745 20.7878 82.9492 20.9047 82.9485 21.1864C82.9485 21.2417 82.9485 21.297 82.9485 21.354C82.9483 21.4146 82.948 21.4751 82.9478 21.5357C82.9477 21.5975 82.9476 21.6594 82.9476 21.7212C82.9474 21.884 82.9469 22.0467 82.9463 22.2095C82.9458 22.3756 82.9456 22.5417 82.9454 22.7077C82.9448 23.0337 82.944 23.3596 82.943 23.6855C80.3038 23.6865 77.6645 23.6873 75.0253 23.6877C74.7141 23.6878 74.4028 23.6878 74.0916 23.6879C74.0297 23.6879 73.9677 23.6879 73.9038 23.6879C72.8991 23.6881 71.8944 23.6885 70.8897 23.6889C69.8596 23.6893 68.8295 23.6895 67.7994 23.6896C67.1632 23.6897 66.527 23.6899 65.8908 23.6902C65.4552 23.6905 65.0196 23.6905 64.584 23.6905C64.3322 23.6904 64.0805 23.6905 63.8288 23.6907C63.5987 23.6909 63.3687 23.6909 63.1386 23.6908C63.055 23.6908 62.9714 23.6908 62.8878 23.691C62.7749 23.6911 62.662 23.6911 62.5491 23.6909C62.4547 23.6909 62.4547 23.6909 62.3584 23.6909C62.2194 23.6855 62.2194 23.6855 62.1703 23.6416C62.1655 23.5447 62.1642 23.4477 62.1643 23.3507C62.1642 23.3197 62.1642 23.2888 62.1641 23.2569C62.164 23.152 62.1642 23.0471 62.1644 22.9422C62.1644 22.8669 62.1643 22.7916 62.1643 22.7163C62.1642 22.508 62.1644 22.2997 62.1646 22.0914C62.1648 21.8639 62.1648 21.6363 62.1647 21.4088C62.1647 20.9665 62.1649 20.5242 62.1652 20.0819C62.1656 19.5706 62.1656 19.0594 62.1657 18.5481C62.1659 17.1973 62.1666 15.8466 62.1672 14.4958C62.1683 11.4795 62.1693 8.46319 62.1703 5.35547Z" fill="#00796E"/>
<path d="M14.2177 5.28031C14.3847 5.28253 14.5517 5.28159 14.7188 5.28111C14.9991 5.2808 15.2793 5.28294 15.5596 5.2866C15.8831 5.29079 16.2063 5.29125 16.5298 5.28967C16.8419 5.28823 17.154 5.28927 17.4661 5.29149C17.5985 5.2924 17.7309 5.29248 17.8633 5.29187C18.0484 5.29158 18.2332 5.29414 18.4183 5.29748C18.4728 5.29686 18.5274 5.29625 18.5836 5.29562C18.8079 5.30222 18.9484 5.30733 19.1125 5.45185C19.2009 5.56335 19.2758 5.67537 19.3485 5.79552C19.3941 5.85953 19.4401 5.92331 19.4868 5.98669C19.5319 6.0508 19.5768 6.11498 19.6217 6.17922C19.673 6.25226 19.7244 6.32529 19.7757 6.39831C19.8155 6.45485 19.8155 6.45485 19.856 6.51254C19.9949 6.70979 20.1352 6.90631 20.2754 7.10285C20.3041 7.14302 20.3327 7.18318 20.3622 7.22457C20.4499 7.34753 20.5376 7.47049 20.6253 7.59344C20.9777 8.08732 21.3296 8.5814 21.6795 9.07667C21.9525 9.46293 22.2273 9.84815 22.5021 10.2334C22.646 10.435 22.7897 10.6368 22.9334 10.8385C22.9907 10.9189 23.048 10.9993 23.1053 11.0797C23.449 11.562 23.7928 12.0444 24.1365 12.5268C24.1649 12.5666 24.1933 12.6064 24.2225 12.6474C24.2797 12.7277 24.3369 12.808 24.3941 12.8882C24.5386 13.0909 24.683 13.2935 24.8275 13.4961C25.1213 13.9081 25.4145 14.3204 25.7063 14.7335C25.9793 15.1198 26.2542 15.505 26.529 15.8903C26.6728 16.0919 26.8165 16.2936 26.9603 16.4953C27.0175 16.5757 27.0748 16.6561 27.1321 16.7365C27.7051 17.5405 28.278 18.3444 28.8509 19.1484C28.8935 19.2081 28.8935 19.2081 28.9369 19.269C28.9941 19.3493 29.0513 19.4296 29.1085 19.5099C29.2529 19.7125 29.3974 19.9151 29.5419 20.1177C29.8357 20.5297 30.1289 20.942 30.4207 21.3552C30.6068 21.6185 30.7937 21.8813 30.981 22.144C31.0092 22.1837 31.0374 22.2233 31.0665 22.2642C31.2195 22.4789 31.373 22.6932 31.5273 22.9071C31.5591 22.9514 31.591 22.9957 31.6238 23.0414C31.6853 23.1269 31.747 23.2123 31.8089 23.2976C31.8364 23.3359 31.8638 23.3742 31.8921 23.4136C31.9288 23.4644 31.9288 23.4644 31.9662 23.5161C32.0184 23.5993 32.0184 23.5993 32.0184 23.687C31.6537 23.6891 31.289 23.6906 30.9244 23.6916C30.7549 23.692 30.5854 23.6926 30.416 23.6936C27.5869 23.7101 27.5869 23.7101 26.8064 23.0757C26.1991 22.5169 25.8008 21.7728 25.3656 21.104C25.0963 20.6909 24.8163 20.2849 24.5279 19.8823C24.4845 19.8213 24.4845 19.8213 24.4402 19.759C24.4147 19.7235 24.3891 19.688 24.3628 19.6514C24.3084 19.565 24.3084 19.565 24.3084 19.4773C18.8147 19.4773 13.321 19.4773 7.66084 19.4773C7.62843 19.5496 7.59601 19.622 7.56262 19.6965C7.51013 19.7792 7.45564 19.8609 7.39976 19.9418C7.36669 19.99 7.33362 20.0382 7.29954 20.0878C7.2731 20.1261 7.2731 20.1261 7.24613 20.1652C7.15159 20.3021 7.05759 20.4393 6.96374 20.5766C6.94428 20.6051 6.92482 20.6336 6.90477 20.6629C6.71252 20.9451 6.52729 21.2308 6.34204 21.5167C6.05203 21.9636 5.7623 22.4046 5.40187 22.81C5.36902 22.8478 5.33616 22.8855 5.30231 22.9244C4.8897 23.3709 4.36601 23.5628 3.73046 23.6312C3.64459 23.6384 3.55865 23.645 3.47266 23.6511C3.42492 23.6546 3.37717 23.6581 3.32799 23.6617C2.67074 23.7048 2.01208 23.6964 1.35354 23.6925C1.22146 23.692 1.08939 23.6917 0.957317 23.6913C0.638207 23.6904 0.319104 23.6889 0 23.687C0.0337746 23.558 0.0749666 23.4611 0.153079 23.348C0.185203 23.3013 0.185203 23.3013 0.217976 23.2535C0.25289 23.2036 0.25289 23.2036 0.288509 23.1526C0.312766 23.1175 0.337023 23.0825 0.362015 23.0463C0.565468 22.7535 0.774612 22.4641 0.985228 22.1753C1.14655 21.9539 1.30537 21.7311 1.46403 21.5081C1.49288 21.4676 1.52172 21.4271 1.55144 21.3853C1.61039 21.3025 1.66932 21.2196 1.72825 21.1368C1.81638 21.0129 1.90462 20.8892 1.9929 20.7654C2.2624 20.3876 2.53152 20.0096 2.79915 19.6307C3.09605 19.2105 3.39482 18.7912 3.69379 18.3721C3.83762 18.1705 3.98134 17.9688 4.12507 17.767C4.18236 17.6866 4.23965 17.6063 4.29694 17.5259C4.3253 17.4861 4.35366 17.4463 4.38288 17.4053C6.01572 15.114 6.01572 15.114 6.10168 14.9934C6.1589 14.9131 6.21611 14.8328 6.27332 14.7525C6.41773 14.5499 6.56217 14.3472 6.70669 14.1447C6.97635 13.7665 7.24568 13.3883 7.51351 13.0091C7.81041 12.5888 8.10918 12.1696 8.40815 11.7505C8.55198 11.5489 8.6957 11.3471 8.83943 11.1454C8.89672 11.065 8.95401 10.9846 9.01131 10.9042C9.03967 10.8645 9.06803 10.8247 9.09724 10.7837C10.0426 9.45714 10.0426 9.45714 10.1285 9.33651C10.1858 9.25623 10.243 9.17594 10.3002 9.09565C10.4446 8.893 10.589 8.69037 10.7335 8.48778C11.0032 8.10967 11.2725 7.7314 11.5404 7.35226C11.7556 7.04765 11.9715 6.74347 12.188 6.43959C12.2148 6.40194 12.2416 6.3643 12.2692 6.32551C12.3222 6.25115 12.3764 6.17746 12.4319 6.10456C12.5282 5.97159 12.5282 5.97159 12.5885 5.81568C12.884 5.17772 13.5409 5.26913 14.2177 5.28031ZM15.9601 7.85655C15.8777 7.95924 15.8017 8.06203 15.7268 8.16899C15.6913 8.21884 15.6913 8.21884 15.6551 8.26968C15.6036 8.34218 15.5521 8.41476 15.5009 8.48741C15.4195 8.60264 15.3376 8.71757 15.2555 8.83242C15.1103 9.03568 14.9654 9.23913 14.8207 9.44264C14.6768 9.64488 14.5327 9.84701 14.3886 10.0491C14.3313 10.1295 14.274 10.2099 14.2167 10.2903C13.4146 11.4159 12.6126 12.5414 11.8105 13.6669C11.7821 13.7067 11.7537 13.7466 11.7245 13.7876C11.6674 13.8677 11.6103 13.9478 11.5532 14.0279C11.4068 14.2332 11.2605 14.4386 11.1143 14.644C11.0548 14.7276 10.9953 14.8112 10.9357 14.8948C10.9072 14.9348 10.8787 14.9748 10.8494 15.0161C10.7222 15.1946 10.5947 15.373 10.4659 15.5506C10.4345 15.5941 10.4345 15.5941 10.4024 15.6383C10.3477 15.7138 10.2928 15.7891 10.2379 15.8645C10.161 15.9548 10.161 15.9548 10.1653 16.013C14.0061 16.013 17.8468 16.013 21.8039 16.013C21.7165 15.8176 21.7165 15.8176 21.6021 15.6431C21.5816 15.6152 21.5611 15.5873 21.54 15.5585C21.5177 15.5285 21.4954 15.4985 21.4724 15.4676C21.4234 15.4007 21.3743 15.3338 21.3253 15.2668C21.2993 15.2313 21.2733 15.1959 21.2465 15.1593C21.1063 14.967 20.9687 14.7733 20.831 14.5796C20.8021 14.539 20.7732 14.4984 20.7434 14.4566C20.6844 14.3736 20.6254 14.2906 20.5663 14.2076C20.4224 14.0054 20.2783 13.8033 20.1343 13.6011C20.0771 13.5209 20.0199 13.4407 19.9628 13.3605C19.8469 13.1979 19.7311 13.0354 19.6152 12.8729C19.3213 12.461 19.0282 12.0486 18.7364 11.6355C18.4634 11.2493 18.1885 10.8641 17.9137 10.4788C17.7414 10.2373 17.5693 9.99566 17.3972 9.75404C17.2504 9.54804 17.1035 9.34212 16.9564 9.1363C16.8965 9.05231 16.8365 8.96832 16.7765 8.88433C16.7478 8.84421 16.7191 8.8041 16.6896 8.76277C16.5658 8.58933 16.4428 8.41566 16.3242 8.2394C16.3058 8.21221 16.2875 8.18502 16.2686 8.15701C16.2219 8.08731 16.1758 8.01734 16.1297 7.94734C16.1061 7.91738 16.0826 7.88742 16.0583 7.85655C16.0259 7.85655 15.9935 7.85655 15.9601 7.85655Z" fill="#00796E"/>
<path d="M146.638 5.92578C147.934 5.92578 149.231 5.92578 150.566 5.92578C150.566 8.28457 150.566 10.6434 150.566 13.0736C156.514 13.0736 162.461 13.0736 168.589 13.0736C168.589 10.7148 168.589 8.35604 168.589 5.92578C169.902 5.92578 171.214 5.92578 172.567 5.92578C172.567 11.7576 172.567 17.5895 172.567 23.598C171.254 23.598 169.941 23.598 168.589 23.598C168.589 21.2392 168.589 18.8805 168.589 16.4502C162.641 16.4502 156.694 16.4502 150.566 16.4502C150.566 18.809 150.566 21.1678 150.566 23.598C149.27 23.598 147.973 23.598 146.638 23.598C146.638 17.7662 146.638 11.9343 146.638 5.92578Z" fill="#00796E"/>
<path d="M175.119 5.92578C176.431 5.92578 177.744 5.92578 179.096 5.92578C179.097 6.25796 179.097 6.59014 179.098 6.93239C179.099 7.99754 179.102 9.06269 179.105 10.1278C179.106 10.2935 179.106 10.4592 179.107 10.6249C179.107 10.6579 179.107 10.6909 179.107 10.7249C179.108 11.2576 179.109 11.7904 179.11 12.3231C179.11 12.8705 179.112 13.4179 179.114 13.9653C179.115 14.3026 179.116 14.6399 179.116 14.9772C179.116 15.2366 179.117 15.496 179.118 15.7555C179.118 15.8613 179.119 15.9671 179.118 16.073C179.117 16.7812 179.135 17.4943 179.523 18.133C179.54 18.1617 179.557 18.1904 179.574 18.22C180.184 19.2195 181.33 19.765 182.514 20.08C184.199 20.5089 185.952 20.5887 187.694 20.5837C187.887 20.5832 188.079 20.5837 188.271 20.5843C190.719 20.5855 193.739 20.4939 195.63 18.8977C196.47 18.1225 196.684 17.1583 196.685 16.1192C196.685 16.0533 196.685 16.0533 196.686 15.9861C196.686 15.8403 196.687 15.6946 196.687 15.5488C196.688 15.4438 196.688 15.3387 196.689 15.2336C196.69 14.9789 196.691 14.7242 196.692 14.4694C196.693 14.1728 196.694 13.8761 196.695 13.5795C196.698 13.0505 196.7 12.5216 196.702 11.9926C196.704 11.4791 196.706 10.9656 196.708 10.452C196.708 10.4045 196.708 10.4045 196.708 10.3559C196.709 10.1969 196.71 10.0378 196.71 9.87877C196.716 8.56111 196.721 7.24344 196.726 5.92578C198.023 5.92578 199.319 5.92578 200.655 5.92578C200.657 7.21844 200.659 8.51111 200.66 9.80377C200.66 9.95704 200.66 10.1103 200.66 10.2636C200.66 10.3093 200.66 10.3093 200.66 10.356C200.661 10.8474 200.661 11.3387 200.662 11.83C200.663 12.3357 200.664 12.8414 200.664 13.3471C200.664 13.6305 200.664 13.9139 200.665 14.1973C200.672 16.8645 200.603 19.3814 198.369 21.3877C195.706 23.694 191.456 24.0037 187.951 24.0009C187.889 24.0009 187.827 24.0009 187.763 24.0008C186.835 23.9998 185.913 23.9907 184.989 23.905C184.898 23.8965 184.898 23.8965 184.804 23.8879C182.101 23.6272 179.281 23.0187 177.279 21.2739C177.241 21.2426 177.203 21.2114 177.164 21.1792C175.835 20.0596 175.167 18.32 175.105 16.7166C175.099 16.4302 175.1 16.1439 175.102 15.8575C175.102 15.7485 175.102 15.6394 175.102 15.5304C175.102 15.2978 175.102 15.0652 175.103 14.8325C175.104 14.4962 175.105 14.1598 175.105 13.8235C175.105 13.2775 175.106 12.7316 175.108 12.1856C175.109 11.6559 175.11 11.1262 175.111 10.5965C175.111 10.5638 175.111 10.531 175.111 10.4972C175.111 10.3328 175.111 10.1684 175.111 10.004C175.113 8.6446 175.115 7.28519 175.119 5.92578Z" fill="#00796E"/>
<path d="M84.7598 5.35547C95.1638 5.35547 105.568 5.35547 116.287 5.35547C116.287 6.49868 116.287 7.6419 116.287 8.81976C111.782 8.81976 107.277 8.81976 102.635 8.81976C102.64 9.83714 102.645 10.8545 102.651 11.9027C102.653 12.5462 102.655 13.1897 102.657 13.8332C102.657 14.1712 102.658 14.5092 102.659 14.8472C102.659 14.8896 102.66 14.932 102.66 14.9756C102.662 15.6593 102.665 16.343 102.669 17.0267C102.673 17.7284 102.676 18.4302 102.677 19.132C102.677 19.565 102.679 19.9979 102.683 20.4308C102.685 20.7278 102.686 21.0248 102.685 21.3218C102.685 21.4931 102.685 21.6643 102.688 21.8356C102.69 21.9927 102.69 22.1496 102.688 22.3067C102.688 22.39 102.69 22.4733 102.692 22.5565C102.686 22.9112 102.587 23.0865 102.306 23.3365C101.976 23.5878 101.635 23.6964 101.201 23.6971C101.151 23.6973 101.151 23.6973 101.101 23.6974C101.031 23.6975 100.961 23.6973 100.891 23.6969C100.785 23.6965 100.68 23.6969 100.575 23.6975C99.9233 23.6982 99.3403 23.6686 98.8484 23.2456C98.6285 23.0281 98.4976 22.8685 98.4979 22.5684C98.4977 22.5193 98.4975 22.4703 98.4973 22.4197C98.4976 22.3658 98.4979 22.3119 98.4982 22.2563C98.498 22.1704 98.498 22.1704 98.4979 22.0827C98.4977 21.9236 98.4981 21.7646 98.4986 21.6055C98.499 21.4339 98.4989 21.2624 98.4988 21.0909C98.4987 20.7937 98.499 20.4965 98.4996 20.1993C98.5004 19.7695 98.5007 19.3398 98.5008 18.9101C98.501 18.2129 98.5016 17.5158 98.5026 16.8186C98.5035 16.1413 98.5042 15.464 98.5046 14.7867C98.5046 14.7446 98.5046 14.7024 98.5047 14.659C98.5049 14.3292 98.5051 13.9995 98.5053 13.6697C98.5062 12.0531 98.5082 10.4364 98.51 8.81976C93.9724 8.81976 89.4348 8.81976 84.7598 8.81976C84.7598 7.67654 84.7598 6.53333 84.7598 5.35547Z" fill="#00796E"/>
<path d="M75.5246 0C75.5663 9.73776e-05 75.6081 0.000194755 75.6511 0.000295084C75.7219 0.000300052 75.7219 0.000300052 75.7941 0.000305121C75.8711 0.000644618 75.8711 0.000644618 75.9496 0.000990973C76.0019 0.00105302 76.0541 0.00111507 76.1079 0.001179C76.2756 0.00142535 76.4432 0.00197593 76.6108 0.00253264C76.7242 0.00275245 76.8375 0.00295256 76.9509 0.00313217C77.2294 0.00361685 77.5079 0.00435161 77.7864 0.00527337C77.7068 0.1563 77.6182 0.251138 77.4825 0.36705C77.3412 0.49022 77.2054 0.613789 77.0774 0.748012C76.9439 0.887148 76.8029 1.01664 76.6569 1.14542C76.5119 1.2733 76.3719 1.40178 76.2395 1.54008C76.0683 1.71883 75.8819 1.88193 75.6947 2.04712C75.5644 2.16498 75.4441 2.28819 75.3237 2.41404C75.1769 2.56063 75.0187 2.69684 74.861 2.83405C74.7358 2.94103 74.7358 2.94103 74.6458 3.08012C74.5597 3.17223 74.5137 3.20292 74.3812 3.22954C74.2352 3.23693 74.092 3.23601 73.9458 3.23214C73.8662 3.23159 73.8662 3.23159 73.785 3.23102C73.6158 3.22955 73.4468 3.22624 73.2776 3.22289C73.1628 3.22157 73.048 3.22037 72.9332 3.2193C72.6521 3.2164 72.371 3.212 72.0898 3.20645C72.1359 3.15823 72.182 3.11005 72.2282 3.06187C72.2539 3.03503 72.2795 3.00819 72.306 2.98054C72.4255 2.85711 72.5489 2.73693 72.673 2.61719C72.6986 2.59245 72.7242 2.56771 72.7505 2.54222C72.9224 2.37682 73.0988 2.21648 73.279 2.05825C73.3676 1.97775 73.4501 1.89438 73.5324 1.80868C73.667 1.66871 73.809 1.5382 73.9559 1.40853C74.1009 1.28065 74.241 1.15217 74.3734 1.01386C74.544 0.835665 74.7297 0.673034 74.9164 0.508369C75.0791 0.361247 75.2298 0.206278 75.3801 0.0491251C75.4292 0.00527337 75.4292 0.00527337 75.5246 0Z" fill="#00796E"/>
</svg>
