<svg xmlns="http://www.w3.org/2000/svg" xmlns:xlink="http://www.w3.org/1999/xlink" width="500" zoomAndPan="magnify" viewBox="0 0 375 374.999991" height="500" preserveAspectRatio="xMidYMid meet" version="1.0"><defs><clipPath id="a94fe7c8df"><path d="M 47 270 L 92 270 L 92 315 L 47 315 Z M 47 270 " clip-rule="nonzero"/></clipPath><clipPath id="8f1efe55b9"><path d="M 48.992188 269.332031 L 92.785156 272.332031 L 89.78125 316.125 L 45.992188 313.125 Z M 48.992188 269.332031 " clip-rule="nonzero"/></clipPath><clipPath id="3eef22c925"><path d="M 70.886719 270.832031 C 58.792969 270.003906 48.320312 279.136719 47.492188 291.230469 C 46.664062 303.324219 55.792969 313.796875 67.886719 314.625 C 79.980469 315.453125 90.453125 306.324219 91.285156 294.230469 C 92.113281 282.136719 82.980469 271.660156 70.886719 270.832031 " clip-rule="nonzero"/></clipPath><clipPath id="394dfd702b"><path d="M 273 44 L 318 44 L 318 89 L 273 89 Z M 273 44 " clip-rule="nonzero"/></clipPath><clipPath id="328f1ef788"><path d="M 275.277344 43.023438 L 319.070312 46.023438 L 316.070312 89.816406 L 272.277344 86.816406 Z M 275.277344 43.023438 " clip-rule="nonzero"/></clipPath><clipPath id="6aea234028"><path d="M 297.175781 44.523438 C 285.082031 43.695312 274.605469 52.828125 273.777344 64.921875 C 272.949219 77.015625 282.082031 87.488281 294.171875 88.316406 C 306.265625 89.144531 316.742188 80.015625 317.570312 67.921875 C 318.398438 55.828125 309.265625 45.355469 297.175781 44.523438 " clip-rule="nonzero"/></clipPath><clipPath id="2224f8258c"><path d="M 61 283 L 106 283 L 106 328 L 61 328 Z M 61 283 " clip-rule="nonzero"/></clipPath><clipPath id="bca630dc29"><path d="M 63.445312 282.050781 L 107.238281 285.050781 L 104.238281 328.84375 L 60.445312 325.84375 Z M 63.445312 282.050781 " clip-rule="nonzero"/></clipPath><clipPath id="8028ee5ca9"><path d="M 85.34375 283.550781 C 73.25 282.722656 62.773438 291.855469 61.945312 303.945312 C 61.117188 316.039062 70.25 326.515625 82.339844 327.34375 C 94.433594 328.171875 104.910156 319.039062 105.738281 306.949219 C 106.566406 294.855469 97.433594 284.378906 85.34375 283.550781 " clip-rule="nonzero"/></clipPath><clipPath id="3fa5723742"><path d="M 287 58 L 332 58 L 332 102 L 287 102 Z M 287 58 " clip-rule="nonzero"/></clipPath><clipPath id="588fad254d"><path d="M 288.875 56.621094 L 332.667969 59.621094 L 329.667969 103.414062 L 285.875 100.414062 Z M 288.875 56.621094 " clip-rule="nonzero"/></clipPath><clipPath id="d954fd6883"><path d="M 310.769531 58.121094 C 298.679688 57.292969 288.203125 66.425781 287.375 78.519531 C 286.546875 90.609375 295.675781 101.085938 307.769531 101.914062 C 319.863281 102.742188 330.339844 93.613281 331.167969 81.519531 C 331.996094 69.425781 322.863281 58.949219 310.769531 58.121094 " clip-rule="nonzero"/></clipPath></defs><path stroke-linecap="round" transform="matrix(0.531356, 0.529389, -0.529346, 0.531313, 55.403065, 16.725642)" fill="none" stroke-linejoin="miter" d="M 37.000145 37.001832 L 533.96791 37.002813 " stroke="#8c52ff" stroke-width="74" stroke-opacity="1" stroke-miterlimit="4"/><path stroke-linecap="round" transform="matrix(0.530721, 0.530721, -0.53033, 0.53033, 61.415141, 132.069983)" fill="none" stroke-linejoin="miter" d="M 36.999359 36.99922 L 280.778776 36.99922 " stroke="#8c52ff" stroke-width="74" stroke-opacity="1" stroke-miterlimit="4"/><g clip-path="url(#a94fe7c8df)"><g clip-path="url(#8f1efe55b9)"><g clip-path="url(#3eef22c925)"><path fill="#8c52ff" d="M 48.992188 269.332031 L 92.785156 272.332031 L 89.78125 316.125 L 45.992188 313.125 Z M 48.992188 269.332031 " fill-opacity="1" fill-rule="nonzero"/></g></g></g><g clip-path="url(#394dfd702b)"><g clip-path="url(#328f1ef788)"><g clip-path="url(#6aea234028)"><path fill="#ff3131" d="M 275.277344 43.023438 L 319.070312 46.023438 L 316.070312 89.816406 L 272.277344 86.816406 Z M 275.277344 43.023438 " fill-opacity="1" fill-rule="nonzero"/></g></g></g><path stroke-linecap="round" transform="matrix(0.530721, 0.530721, -0.53033, 0.53033, 174.359026, 19.148046)" fill="none" stroke-linejoin="miter" d="M 37.000762 36.997931 L 280.780179 36.997931 " stroke="#8c52ff" stroke-width="74" stroke-opacity="1" stroke-miterlimit="4"/><g clip-path="url(#2224f8258c)"><g clip-path="url(#bca630dc29)"><g clip-path="url(#8028ee5ca9)"><path fill="#ff3131" d="M 63.445312 282.050781 L 107.238281 285.050781 L 104.238281 328.84375 L 60.445312 325.84375 Z M 63.445312 282.050781 " fill-opacity="1" fill-rule="nonzero"/></g></g></g><g clip-path="url(#3fa5723742)"><g clip-path="url(#588fad254d)"><g clip-path="url(#d954fd6883)"><path fill="#8c52ff" d="M 288.875 56.621094 L 332.667969 59.621094 L 329.667969 103.414062 L 285.875 100.414062 Z M 288.875 56.621094 " fill-opacity="1" fill-rule="nonzero"/></g></g></g></svg>